<?xml version="1.0" encoding="utf-8"?>
<!-- Generator: Adobe Illustrator 21.0.0, SVG Export Plug-In . SVG Version: 6.00 Build 0)  -->
<svg version="1.1" id="Ebene_1" xmlns="http://www.w3.org/2000/svg" xmlns:xlink="http://www.w3.org/1999/xlink" x="0px" y="0px"
	 viewBox="0 0 698 679" style="enable-background:new 0 0 698 679;" xml:space="preserve">
<g fill="#eee">
	<path d="M583.2,104C520.5,41.4,437.3,6.9,348.8,6.8c-0.1,0-0.1,0-0.2,0c0,0,0,0-0.1,0c0,0-0.1,0-0.1,0
		c-88.7,0-172.1,34.5-234.8,97.2S16.4,250.1,16.4,338.8c0,88.7,34.5,172.1,97.2,234.8c62.7,62.7,146.1,97.2,234.8,97.2
		c0,0,0.1,0,0.1,0c0,0,0,0,0.1,0c0.1,0,0.1,0,0.2,0c88.5-0.1,171.8-34.6,234.4-97.2c62.7-62.7,97.2-146.1,97.2-234.8
		C680.4,250.1,645.9,166.7,583.2,104z M605.2,185.7c-1.2-2.1-2.5-4.1-3.8-6.1C602.7,181.6,603.9,183.7,605.2,185.7z M592.6,166.4
		c-1.3-1.8-2.6-3.7-4-5.5C590,162.8,591.3,164.6,592.6,166.4z M588.1,160.3h-94.6c-5.7-17.9-12.3-34.8-19.8-50.4
		c-10.7-22.3-22.7-41.1-35.9-56.4C498.5,72.4,550.9,110.4,588.1,160.3z M259.5,53.2c-13.2,15.3-25.4,34.3-36.1,56.6
		c-7.5,15.6-14.1,32.5-19.8,50.4h-95C146,110.2,198.6,72.2,259.5,53.2z M108.1,161c-1.3,1.8-2.7,3.6-4,5.5
		C105.5,164.6,106.8,162.8,108.1,161z M95.4,179.6c-1.3,2-2.5,4.1-3.8,6.1C92.9,183.7,94.1,181.6,95.4,179.6z M130.5,543.3h82.4
		c3.3,8.4,6.8,16.6,10.6,24.4c10.7,22.3,22.8,41.3,36.1,56.6C209.7,608.7,165.4,580.4,130.5,543.3z M437.8,624.1
		c13.2-15.3,25.2-34.2,35.9-56.4c3.7-7.8,7.3-16,10.6-24.4h82C531.5,580.3,487.4,608.5,437.8,624.1z M588.1,517.3h-94.6
		c3.7-11.7,7.1-23.8,10-36.3c-23.5,28.3-54.5,50.1-90.1,62.3h26c-1.3,3-2.7,5.9-4.1,8.8c-24.4,50.9-56,80.1-86.8,80.1
		s-62.4-29.2-86.8-80.1c-1.4-2.9-2.7-5.8-4.1-8.8h25.6c-35.3-12-66.1-33.6-89.5-61.6c2.9,12.3,6.2,24.2,9.9,35.6h-95
		c-34.8-46.6-56.3-103.6-59-165.5h97.5c0-8.8,0.7-17.5,1.8-26H49.7c2.2-50.8,17.1-98.3,41.6-139.5h104.9c-3.9,15.2-7.2,31-9.9,47.3
		c25.4-34.4,61.4-60.5,103.3-73.3h-42.1c4.3-12.3,9.1-23.9,14.3-34.8c24.4-50.9,56-80.1,86.8-80.1s62.4,29.2,86.8,80.1
		c5.2,10.9,10,22.6,14.3,34.8h-42.4c42.1,12.9,78.4,39.2,103.8,73.9c-2.7-16.5-6.1-32.5-10-47.9h104.5
		c24.5,41.2,39.4,88.7,41.6,139.5h-99.3c1.1,8.5,1.8,17.2,1.8,26h97.5C644.4,413.6,622.9,470.7,588.1,517.3z"/>
	<g>
		<g>
			<path d="M433.2,268v169.6H263.6V268H433.2 M434.9,239H261.9c-15,0-27.3,12.2-27.3,27.3v173.1c0,15,12.2,27.2,27.3,27.2h173.1
				c15,0,27.3-12.2,27.3-27.2V266.2C462.2,251.2,450,239,434.9,239L434.9,239z"/>
		</g>
		<path d="M424.5,464.2H271.4c-17.7,0-32-14.3-32-32v-1.7h217.1v1.7C456.5,449.8,442.2,464.2,424.5,464.2z"/>
		<g>
			<polygon points="448.4,414.7 398.6,368.9 303.3,456.6 448.4,456.6 			"/>
		</g>
		<g>
			<polygon points="246.9,446.2 418.1,446.2 310.7,329.5 246.9,398.8 			"/>
		</g>
		<circle cx="388.2" cy="308.2" r="19.9"/>
	</g>
</g>
</svg>
